<svg xmlns="http://www.w3.org/2000/svg" width="1000" height="400" viewBox="0 0 1000 400"><rect width="100%" height="100%" fill="#909090"/><path fill="#f2f3f3" d="M207 211.86q-2.75 0-4.22-1.55-1.46-1.55-1.46-4.27v-11.75h-2.15q-.41 0-.7-.27-.29-.26-.29-.8v-2.01l3.38-.55 1.07-5.74q.1-.41.39-.63.29-.23.74-.23h2.62v6.62H212v3.61h-5.62v11.4q0 .98.48 1.53.48.56 1.33.56.47 0 .78-.11.32-.12.56-.24.23-.12.42-.24.18-.11.37-.11.22 0 .37.11.14.12.3.34l1.52 2.46q-1.11.93-2.54 1.4-1.44.47-2.97.47m13.3-30.79v11.68q1.23-1.15 2.71-1.86 1.47-.72 3.46-.72 1.72 0 3.06.58 1.33.59 2.22 1.64.89 1.06 1.35 2.52.46 1.47.46 3.23v13.39h-5.06v-13.39q0-1.92-.88-2.98t-2.69-1.06q-1.31 0-2.46.6-1.14.59-2.17 1.62v15.21h-5.06v-30.46zm18.23 9.43h5.08v21.03h-5.08zm5.78-6.13q0 .65-.27 1.23-.27.57-.71 1t-1.03.69q-.6.26-1.27.26-.66 0-1.24-.26-.59-.26-1.02-.69t-.69-1q-.25-.58-.25-1.23 0-.68.25-1.27.26-.6.69-1.03t1.02-.69q.58-.25 1.24-.25.67 0 1.27.25.59.26 1.03.69t.71 1.03q.27.59.27 1.27m18.45 8.4-1.15 1.83q-.21.32-.43.46-.23.13-.58.13-.37 0-.79-.2-.42-.21-.97-.46-.55-.26-1.26-.47-.71-.2-1.67-.2-1.5 0-2.35.63-.85.64-.85 1.66 0 .68.44 1.14t1.17.81 1.65.63q.92.27 1.88.6.95.33 1.87.75t1.65 1.07q.73.64 1.17 1.54.44.91.44 2.18 0 1.51-.54 2.8-.54 1.28-1.61 2.21t-2.64 1.46q-1.56.52-3.61.52-1.09 0-2.13-.2-1.03-.19-1.98-.54-.96-.35-1.77-.82t-1.42-1.02l1.17-1.93q.22-.35.53-.53.31-.19.78-.19t.89.27q.42.26.97.57.56.31 1.31.57.74.27 1.89.27.9 0 1.55-.21.65-.22 1.07-.57t.61-.81q.2-.46.2-.95 0-.74-.44-1.21-.45-.47-1.17-.82-.73-.35-1.66-.63-.94-.27-1.91-.6t-1.91-.77q-.93-.44-1.66-1.12-.72-.67-1.17-1.66-.44-.98-.44-2.37 0-1.3.52-2.46.51-1.17 1.5-2.04 1-.88 2.48-1.4 1.49-.52 3.44-.52 2.17 0 3.95.72 1.79.71 2.98 1.88m14.16-2.27h5.09v21.03h-5.09zm5.78-6.13q0 .65-.26 1.23-.27.57-.71 1t-1.04.69q-.59.26-1.27.26-.65 0-1.24-.26-.58-.26-1.01-.69t-.69-1q-.26-.58-.26-1.23 0-.68.26-1.27.26-.6.69-1.03t1.01-.69q.59-.25 1.24-.25.68 0 1.27.25.6.26 1.04.69t.71 1.03q.26.59.26 1.27m18.45 8.4L300 194.6q-.2.32-.43.46-.22.13-.57.13-.37 0-.79-.2-.42-.21-.97-.46-.56-.26-1.26-.47-.71-.2-1.67-.2-1.5 0-2.35.63-.85.64-.85 1.66 0 .68.44 1.14t1.17.81q.72.35 1.65.63.92.27 1.87.6.96.33 1.88.75t1.65 1.07q.73.64 1.17 1.54.44.91.44 2.18 0 1.51-.55 2.8-.54 1.28-1.6 2.21-1.07.93-2.64 1.46-1.57.52-3.62.52-1.08 0-2.12-.2-1.03-.19-1.99-.54-.95-.35-1.76-.82t-1.42-1.02l1.16-1.93q.23-.35.54-.53.3-.19.78-.19.47 0 .89.27.42.26.97.57t1.3.57q.75.27 1.9.27.9 0 1.55-.21.64-.22 1.06-.57t.62-.81q.19-.46.19-.95 0-.74-.44-1.21t-1.17-.82q-.72-.35-1.66-.63-.93-.27-1.9-.6-.98-.33-1.91-.77t-1.66-1.12q-.73-.67-1.17-1.66-.44-.98-.44-2.37 0-1.3.51-2.46.52-1.17 1.51-2.04.99-.88 2.48-1.4t3.43-.52q2.18 0 3.96.72 1.78.71 2.97 1.88m25.12 13.33v-3.55q-2.2.1-3.69.38-1.5.28-2.4.71-.91.43-1.29 1-.39.58-.39 1.25 0 1.33.78 1.91.79.57 2.07.57 1.55 0 2.69-.56t2.23-1.71m-10.71-11.05-.9-1.62q3.63-3.32 8.74-3.32 1.84 0 3.3.6 1.45.61 2.46 1.68 1 1.08 1.52 2.58.53 1.49.53 3.28v13.28h-2.3q-.72 0-1.11-.22-.39-.21-.61-.87l-.45-1.51q-.8.71-1.56 1.26-.76.54-1.58.91t-1.75.56q-.94.2-2.06.2-1.34 0-2.46-.36-1.13-.36-1.95-1.08-.82-.71-1.27-1.78t-.45-2.48q0-.8.26-1.59.27-.79.88-1.51.6-.71 1.56-1.35.97-.64 2.37-1.11 1.41-.47 3.27-.77 1.87-.29 4.27-.35v-1.23q0-2.12-.91-3.13-.9-1.02-2.6-1.02-1.23 0-2.04.29t-1.42.65q-.62.36-1.12.64-.5.29-1.12.29-.53 0-.9-.28-.37-.27-.6-.64m35.43 1.6v9.43q.86 1.04 1.87 1.47 1.02.43 2.21.43 1.15 0 2.07-.43t1.57-1.31q.64-.88.99-2.22.35-1.35.35-3.17 0-1.85-.3-3.13t-.85-2.08-1.34-1.17-1.8-.37q-1.57 0-2.68.67t-2.09 1.88m-.68-5.23.41 1.95q1.29-1.46 2.93-2.36t3.86-.9q1.72 0 3.14.71 1.43.72 2.46 2.09 1.04 1.36 1.6 3.36.57 2 .57 4.58 0 2.36-.64 4.37-.63 2-1.81 3.48t-2.85 2.31-3.74.83q-1.77 0-3.02-.55-1.25-.54-2.23-1.5v8.61h-5.07v-27.9h3.1q.98 0 1.29.92m18.96-10.35h5.07v30.46h-5.07zm21.24 25.03v-3.55q-2.19.1-3.69.38-1.49.28-2.4.71-.9.43-1.29 1-.39.58-.39 1.25 0 1.33.79 1.91.79.57 2.06.57 1.56 0 2.7-.56t2.22-1.71m-10.7-11.05-.9-1.62q3.63-3.32 8.73-3.32 1.85 0 3.3.6 1.46.61 2.46 1.68 1.01 1.08 1.53 2.58.52 1.49.52 3.28v13.28h-2.29q-.72 0-1.11-.22-.39-.21-.62-.87l-.45-1.51q-.8.71-1.55 1.26-.76.54-1.58.91t-1.76.56q-.93.2-2.06.2-1.33 0-2.46-.36-1.12-.36-1.94-1.08-.82-.71-1.27-1.78-.46-1.07-.46-2.48 0-.8.27-1.59t.87-1.51q.61-.71 1.57-1.35t2.37-1.11q1.4-.47 3.27-.77 1.86-.29 4.26-.35v-1.23q0-2.12-.9-3.13-.9-1.02-2.6-1.02-1.23 0-2.04.29t-1.43.65q-.61.36-1.12.64-.5.29-1.11.29-.54 0-.9-.28-.37-.27-.6-.64m36.8-1.95-1.33 1.85q-.23.28-.44.45-.22.16-.63.16-.39 0-.76-.24-.37-.23-.88-.53t-1.22-.53q-.71-.24-1.75-.24-1.33 0-2.34.48-1 .49-1.67 1.39t-.99 2.18q-.33 1.28-.33 2.9 0 1.68.36 3 .36 1.31 1.03 2.2.68.89 1.64 1.35.97.46 2.17.46 1.21 0 1.96-.29.75-.3 1.26-.66.52-.36.89-.66.38-.29.86-.29.61 0 .92.47l1.45 1.84q-.84.99-1.82 1.65-.98.67-2.04 1.07t-2.17.56q-1.12.17-2.23.17-1.95 0-3.67-.73t-3.01-2.12q-1.29-1.4-2.04-3.42-.75-2.01-.75-4.6 0-2.31.67-4.29.66-1.98 1.96-3.43 1.29-1.44 3.19-2.26 1.91-.82 4.39-.82 2.36 0 4.13.76t3.19 2.17m7.36 5.49h9.55q0-.98-.28-1.85-.27-.87-.83-1.53-.55-.65-1.4-1.03t-1.98-.38q-2.19 0-3.45 1.25t-1.61 3.54m12.91 3.06h-13.01q.12 1.62.57 2.8t1.19 1.94q.74.77 1.75 1.15 1.02.38 2.25.38t2.12-.29q.89-.28 1.56-.63.66-.35 1.16-.64.51-.28.98-.28.63 0 .94.47l1.46 1.84q-.84.99-1.89 1.65-1.04.67-2.18 1.07t-2.32.56q-1.18.17-2.28.17-2.2 0-4.08-.73-1.89-.73-3.28-2.15-1.4-1.43-2.2-3.53t-.8-4.87q0-2.15.7-4.05.7-1.89 2-3.3 1.3-1.4 3.18-2.22 1.87-.82 4.23-.82 1.99 0 3.67.63 1.68.64 2.89 1.86t1.9 2.99q.68 1.78.68 4.05 0 1.15-.24 1.55-.25.4-.95.4m20.01-20.58v11.68q1.23-1.15 2.71-1.86 1.47-.72 3.46-.72 1.72 0 3.06.58 1.33.59 2.22 1.64.89 1.06 1.35 2.52.46 1.47.46 3.23v13.39h-5.06v-13.39q0-1.92-.88-2.98t-2.69-1.06q-1.31 0-2.46.6-1.14.59-2.17 1.62v15.21h-5.06v-30.46zm27.37 9.1q2.34 0 4.25.76 1.92.76 3.28 2.15 1.37 1.39 2.1 3.4.74 2.01.74 4.49 0 2.5-.74 4.51-.73 2.01-2.1 3.43-1.36 1.41-3.28 2.17-1.91.76-4.25.76-2.36 0-4.29-.76-1.92-.76-3.29-2.17-1.36-1.42-2.11-3.43t-.75-4.51q0-2.48.75-4.49t2.11-3.4q1.37-1.39 3.29-2.15 1.93-.76 4.29-.76m0 17.77q2.62 0 3.88-1.76t1.26-5.17q0-3.4-1.26-5.18-1.26-1.79-3.88-1.79-2.67 0-3.95 1.8-1.28 1.79-1.28 5.17 0 3.39 1.28 5.16t3.95 1.77m14.31-26.87h5.06v30.46h-5.06zm23.33 24.23v-9.43q-.86-1.05-1.88-1.48-1.01-.43-2.18-.43-1.15 0-2.07.43-.93.43-1.58 1.3-.66.88-1.01 2.22-.34 1.34-.34 3.16 0 1.85.29 3.13.3 1.28.85 2.09.56.81 1.36 1.17t1.78.36q1.58 0 2.69-.66 1.1-.65 2.09-1.86m0-24.23h5.06v30.46h-3.1q-1 0-1.27-.92l-.43-2.03q-1.27 1.45-2.92 2.36-1.65.9-3.84.9-1.72 0-3.16-.72-1.43-.72-2.47-2.08-1.03-1.36-1.6-3.37-.56-2.01-.56-4.6 0-2.33.63-4.34.64-2.01 1.83-3.49 1.19-1.47 2.85-2.3t3.73-.83q1.76 0 3.01.55t2.24 1.5zm14.06 17.52h9.55q0-.98-.27-1.85-.28-.87-.83-1.53-.56-.65-1.41-1.03t-1.98-.38q-2.19 0-3.45 1.25t-1.61 3.54m12.91 3.06h-13.01q.12 1.62.57 2.8t1.19 1.94q.74.77 1.75 1.15 1.02.38 2.25.38t2.12-.29q.89-.28 1.56-.63.66-.35 1.17-.64.5-.28.97-.28.64 0 .94.47l1.46 1.84q-.84.99-1.89 1.65-1.04.67-2.18 1.07t-2.32.56q-1.18.17-2.28.17-2.2 0-4.08-.73-1.89-.73-3.28-2.15-1.4-1.43-2.2-3.53t-.8-4.87q0-2.15.7-4.05.7-1.89 2-3.3 1.3-1.4 3.18-2.22 1.87-.82 4.23-.82 1.99 0 3.67.63 1.68.64 2.89 1.86t1.9 2.99q.68 1.78.68 4.05 0 1.15-.24 1.55-.25.4-.95.4m9.46-9.88.3 2.38q.99-1.89 2.34-2.97 1.35-1.07 3.2-1.07 1.45 0 2.33.63l-.32 3.8q-.11.36-.3.52-.2.15-.52.15-.31 0-.92-.1-.6-.1-1.17-.1-.84 0-1.5.24-.66.25-1.18.71t-.92 1.12q-.4.65-.75 1.49v12.96h-5.06V190.5h2.97q.78 0 1.09.27.3.28.41 1m27.32 19.76h-5.06v-17.22l-1.83-.29q-.59-.12-.95-.42-.36-.29-.36-.85v-2.07h3.14v-1.56q0-1.8.54-3.24.54-1.43 1.56-2.44 1.01-1 2.47-1.53 1.46-.54 3.28-.54 1.46 0 2.71.39l-.11 2.55q-.02.28-.16.46-.14.17-.38.26-.24.1-.54.13-.31.03-.66.03-.9 0-1.61.19-.71.2-1.2.68t-.75 1.27q-.25.79-.25 1.96v1.39h5.47v3.61h-5.31zm17.47-21.36q2.33 0 4.25.76t3.28 2.15 2.1 3.4.74 4.49q0 2.5-.74 4.51t-2.1 3.43q-1.36 1.41-3.28 2.17t-4.25.76q-2.36 0-4.29-.76-1.92-.76-3.29-2.17-1.36-1.42-2.11-3.43t-.75-4.51q0-2.48.75-4.49t2.11-3.4q1.37-1.39 3.29-2.15 1.93-.76 4.29-.76m0 17.77q2.62 0 3.88-1.76t1.26-5.17q0-3.4-1.26-5.18-1.26-1.79-3.88-1.79-2.67 0-3.95 1.8-1.28 1.79-1.28 5.17 0 3.39 1.28 5.16t3.95 1.77m18.71-16.17.31 2.38q.99-1.89 2.34-2.97 1.35-1.07 3.2-1.07 1.45 0 2.33.63l-.32 3.8q-.11.36-.3.52-.2.15-.52.15-.31 0-.92-.1-.6-.1-1.18-.1-.84 0-1.49.24-.66.25-1.18.71t-.92 1.12q-.4.65-.75 1.49v12.96h-5.06V190.5h2.97q.78 0 1.08.27.31.28.41 1m31.9 14.33v-3.55q-2.19.1-3.69.38-1.49.28-2.4.71-.9.43-1.29 1-.39.58-.39 1.25 0 1.33.79 1.91.79.57 2.06.57 1.56 0 2.7-.56t2.22-1.71m-10.7-11.05-.9-1.62q3.63-3.32 8.73-3.32 1.85 0 3.3.6 1.46.61 2.46 1.68 1.01 1.08 1.53 2.58.52 1.49.52 3.28v13.28h-2.29q-.72 0-1.11-.22-.39-.21-.62-.87l-.45-1.51q-.8.71-1.55 1.26-.76.54-1.58.91t-1.76.56q-.93.2-2.06.2-1.33 0-2.46-.36-1.12-.36-1.94-1.08-.82-.71-1.27-1.78-.46-1.07-.46-2.48 0-.8.27-1.59t.87-1.51q.61-.71 1.57-1.35t2.37-1.11q1.4-.47 3.27-.77 1.86-.29 4.26-.35v-1.23q0-2.12-.9-3.13-.9-1.02-2.6-1.02-1.23 0-2.04.29t-1.43.65q-.61.36-1.12.64-.5.29-1.11.29-.54 0-.9-.28-.37-.27-.6-.64m24.79-3.63.34 1.66q.64-.64 1.35-1.18.7-.54 1.49-.92t1.69-.6q.91-.21 1.97-.21 1.72 0 3.06.58 1.33.59 2.22 1.64.89 1.06 1.35 2.52.47 1.47.47 3.23v13.39h-5.07v-13.39q0-1.92-.88-2.98t-2.68-1.06q-1.32 0-2.46.6-1.15.59-2.18 1.62v15.21h-5.06V190.5h3.09q.99 0 1.3.92m28.86-.92h5.08v21.03h-5.08zm5.78-6.13q0 .65-.27 1.23-.26.57-.7 1t-1.04.69q-.59.26-1.27.26-.66 0-1.24-.26t-1.01-.69-.69-1q-.26-.58-.26-1.23 0-.68.26-1.27.26-.6.69-1.03t1.01-.69q.58-.25 1.24-.25.68 0 1.27.25.6.26 1.04.69t.7 1.03q.27.59.27 1.27m9.53 27.16h-5.06V190.5h3.1q.98 0 1.29.92l.32 1.56q.56-.62 1.16-1.13.61-.51 1.29-.88.69-.37 1.48-.59.79-.21 1.73-.21 1.99 0 3.27 1.08 1.28 1.07 1.92 2.85.49-1.04 1.23-1.79t1.62-1.22 1.87-.7q1-.22 2-.22 1.75 0 3.1.53t2.27 1.56q.93 1.02 1.41 2.5t.48 3.38v13.39h-5.06v-13.39q0-2.01-.88-3.02-.89-1.02-2.59-1.02-.78 0-1.44.27-.67.27-1.17.77t-.79 1.26-.29 1.74v13.39h-5.08v-13.39q0-2.11-.85-3.07-.85-.97-2.49-.97-1.11 0-2.06.55-.96.54-1.78 1.48zm40.39-5.43v-3.55q-2.2.1-3.69.38-1.5.28-2.4.71t-1.29 1q-.39.58-.39 1.25 0 1.33.79 1.91.79.57 2.06.57 1.56 0 2.69-.56 1.14-.56 2.23-1.71m-10.7-11.05-.9-1.62q3.62-3.32 8.73-3.32 1.84 0 3.3.6 1.45.61 2.46 1.68 1 1.08 1.53 2.58.52 1.49.52 3.28v13.28h-2.3q-.71 0-1.1-.22-.39-.21-.62-.87l-.45-1.51q-.8.71-1.56 1.26-.76.54-1.58.91t-1.75.56q-.93.2-2.06.2-1.33 0-2.46-.36t-1.95-1.08q-.82-.71-1.27-1.78t-.45-2.48q0-.8.27-1.59.26-.79.87-1.51.6-.71 1.57-1.35.96-.64 2.36-1.11 1.41-.47 3.27-.77 1.87-.29 4.27-.35v-1.23q0-2.12-.9-3.13-.91-1.02-2.61-1.02-1.23 0-2.04.29t-1.42.65q-.62.36-1.12.64-.5.29-1.12.29-.53 0-.9-.28-.37-.27-.59-.64m28.08 5.45q.95 0 1.64-.26.7-.25 1.16-.7t.7-1.09q.23-.63.23-1.39 0-1.56-.93-2.47-.93-.92-2.8-.92-1.86 0-2.8.92-.93.91-.93 2.47 0 .73.24 1.37.23.64.69 1.1.47.46 1.17.71.71.26 1.63.26m5.72 11.97q0-.61-.37-1t-1-.61q-.64-.21-1.49-.31-.85-.11-1.8-.16-.96-.05-1.97-.09t-1.98-.16q-.84.47-1.36 1.1-.52.64-.52 1.48 0 .55.27 1.03.28.49.88.83.61.35 1.57.55.97.19 2.36.19 1.41 0 2.44-.21 1.02-.22 1.69-.6t.97-.9q.31-.52.31-1.14m-1-21.26h6.04v1.89q0 .9-1.08 1.11l-1.89.35q.43 1.08.43 2.37 0 1.56-.62 2.82-.63 1.26-1.73 2.15-1.11.88-2.62 1.36t-3.25.48q-.61 0-1.19-.06-.57-.06-1.12-.17-.99.6-.99 1.34 0 .63.59.93.58.3 1.54.42.97.12 2.2.15t2.52.14q1.29.1 2.52.36 1.23.25 2.19.81.97.55 1.55 1.5.59.96.59 2.45 0 1.4-.69 2.71t-1.99 2.34q-1.3 1.02-3.2 1.65-1.89.62-4.31.62-2.38 0-4.14-.46-1.77-.46-2.94-1.23-1.16-.77-1.74-1.77-.57-1.01-.57-2.1 0-1.47.89-2.47.89-.99 2.45-1.58-.84-.43-1.33-1.15t-.49-1.89q0-.47.17-.97t.51-1q.34-.49.85-.93.52-.44 1.21-.79-1.6-.86-2.51-2.29-.91-1.44-.91-3.37 0-1.55.62-2.81.63-1.27 1.75-2.16 1.11-.89 2.64-1.36t3.33-.47q1.36 0 2.54.27 1.19.28 2.18.81m13.24 7.38h9.55q0-.98-.27-1.85-.28-.87-.83-1.53-.56-.65-1.41-1.03t-1.98-.38q-2.19 0-3.45 1.25t-1.61 3.54m12.92 3.06h-13.02q.12 1.62.57 2.8t1.19 1.94q.74.77 1.75 1.15 1.02.38 2.25.38t2.12-.29q.89-.28 1.56-.63.66-.35 1.17-.64.5-.28.97-.28.64 0 .94.47l1.46 1.84q-.84.99-1.89 1.65-1.04.67-2.18 1.07t-2.32.56q-1.18.17-2.28.17-2.2 0-4.08-.73-1.89-.73-3.28-2.15-1.4-1.43-2.2-3.53t-.8-4.87q0-2.15.7-4.05.7-1.89 2-3.3 1.3-1.4 3.18-2.22 1.87-.82 4.23-.82 1.99 0 3.67.63 1.68.64 2.89 1.86t1.9 2.99q.68 1.78.68 4.05 0 1.15-.24 1.55-.25.4-.94.4"/></svg>